<svg xmlns="http://www.w3.org/2000/svg" viewBox="0 0 64 64">
  <rect width="64" height="64" rx="14" fill="#0A0E1A"/>
  <g fill="none" stroke="#FFD700" stroke-width="3" stroke-linecap="round" stroke-linejoin="round">
    <path d="M22 12h20v10c0 7-4.5 12-10 12s-10-5-10-12V12z" fill="#FFD700" fill-opacity="0.18"/>
    <path d="M22 14h-6c0 8 3 12 8 13M42 14h6c0 8-3 12-8 13"/>
    <path d="M32 34v7"/>
    <path d="M25 47c0-3 3-5 7-5s7 2 7 5"/>
    <path d="M23 50h18v4H23z" fill="#FFD700" fill-opacity="0.25"/>
  </g>
  <circle cx="32" cy="22" r="4.5" fill="#0A0E1A" stroke="#FFD700" stroke-width="1.5"/>
  <path d="M32 19l2.6 1.9-1 3.1h-3.2l-1-3.1z" fill="#FFD700"/>
</svg>
